<?xml version="1.0" encoding="utf-8"?>
<!-- Generator: Adobe Illustrator 24.0.1, SVG Export Plug-In . SVG Version: 6.00 Build 0)  -->
<svg version="1.1" id="katman_1" xmlns="http://www.w3.org/2000/svg" xmlns:xlink="http://www.w3.org/1999/xlink" x="0px" y="0px"
	 viewBox="0 0 890.9 300" style="enable-background:new 0 0 890.9 300;" xml:space="preserve">
<style type="text/css">
	.st0{fill:#4F5192;}
	.st1{fill:none;}
</style>
<path class="st0" d="M155.5,15c-74.6,0-135,60.4-135,135s60.4,135,135,135s135-60.4,135-135S230,15,155.5,15z M155.5,268.5
	C90,268.5,36.9,215.5,36.9,150S90,31.5,155.5,31.5S274,84.5,274,150S220.9,268.5,155.5,268.5z"/>
<g>
	<path class="st0" d="M130.4,123.5v19h11.7v19.1c0,0.2-0.1,0.3-0.3,0.3c-0.9,0.1-1.8,0.1-2.9,0.2c-1.6,0.1-2.4,0.1-3.2,0.1
		c-13.5,0-23.4-9.9-23.4-9.9c-9.4-9.3-10-21-9.9-24.9c0-2.3,0.1-8.3,3.4-14.6c1.9-3.8,4.3-6.4,6.6-8.9c1.7-1.9,3.1-3.2,4.7-4.3
		c1.8-1.3,3.2-2,4.4-2.5c3.7-1.8,7-2.5,9-2.8c1.8-0.3,3.9-0.7,6.7-0.5c2.4,0.2,4.1,0.7,6.3,1.4c3.4,1,6.4,2.3,8.9,3.8
		c2.2,1.2,4.5,2.7,6.8,4.5c2.3,1.7,4,3,5.3,4c0.1,0,0.1,0.1,0.2,0.1h1.9c0.2,0,0.3-0.2,0.3-0.3V83.8c0-0.1-0.1-0.2-0.2-0.3
		c-5.7-2.7-11.2-4.9-16.5-6.5c-5.4-1.6-12.4-2.4-21-2.4c-16.7,0-29.8,4.8-39.4,14.5c-9.6,9.7-14.4,22.5-14.4,38.5
		c0,17,4.8,30.2,14.4,39.4c9.2,8.9,21.5,13.5,36.7,13.9v0h40.5v-57.4H130.4z"/>
	<path class="st0" d="M198.6,177.8c6.4-2.7,11.6-6.3,15.4-10.8c3.8-4.5,5.8-10.4,5.8-17.6c0-5.1-1.2-9.4-3.5-12.7
		c-2.3-3.3-5.5-6.1-9.5-8.2c-3.9-2.1-8.1-3.4-12.7-4.1c-4.6-0.7-10-1-16.2-1h-7.1v17.4c3,0,5.5,0.1,7.5,0.3c2.2,0.2,4.1,0.6,5.9,1.2
		c2.5,0.9,4.3,2.3,5.4,4c1.1,1.7,1.6,3.8,1.6,6.1c0,2.7-0.4,4.8-1.3,6.5c-0.9,1.7-2.2,3.1-4,4.3c-1.9,1.3-4.2,2.2-6.9,2.6
		c-2.3,0.3-5,0.5-8,0.6v14.6L204,218h32.2L198.6,177.8z"/>
	<g>
		<path class="st0" d="M87.7,198.9c-0.6,0.2-1.3,0.5-2.3,0.7c-0.9,0.2-1.9,0.4-2.8,0.4c-2.1,0-3.8-0.6-5-1.9c-1.2-1.3-1.9-3-1.9-5.4
			c0-2.2,0.6-3.9,1.9-5.2c1.2-1.3,2.9-2,5.1-2c1.1,0,2,0.1,2.7,0.3s1.4,0.5,2.2,0.9v3.3h-0.3c-0.2-0.1-0.4-0.3-0.7-0.6
			s-0.6-0.4-0.9-0.6c-0.3-0.2-0.7-0.4-1.2-0.5c-0.4-0.1-0.9-0.2-1.4-0.2c-0.6,0-1.1,0.1-1.6,0.3c-0.5,0.2-0.9,0.5-1.3,0.9
			c-0.4,0.4-0.6,0.8-0.8,1.4c-0.2,0.6-0.3,1.2-0.3,2c0,1.6,0.4,2.8,1.2,3.6c0.8,0.8,1.8,1.2,3.2,1.2c0.1,0,0.3,0,0.4,0
			c0.2,0,0.3,0,0.4,0v-2.7h-2.6v-2.6h5.8V198.9z"/>
		<path class="st0" d="M88.8,199.7l4.5-13.9h3.6l4.5,13.9H98l-0.8-2.8h-4.2l-0.8,2.8H88.8z M96.4,194.4l-1.4-4.6l-1.4,4.6H96.4z"/>
		<path class="st0" d="M113,190.2c0,0.6-0.1,1.3-0.3,1.8c-0.2,0.6-0.5,1.1-0.8,1.5c-0.2,0.2-0.5,0.5-0.7,0.7s-0.6,0.4-0.9,0.5
			c-0.3,0.1-0.7,0.3-1.1,0.3c-0.4,0.1-0.8,0.1-1.3,0.1h-1.8v4.5h-3.3v-13.9h5.2c0.8,0,1.4,0.1,2,0.2s1.1,0.4,1.5,0.7
			c0.5,0.3,0.9,0.8,1.2,1.4S113,189.4,113,190.2z M109.5,190.3c0-0.4-0.1-0.7-0.3-1c-0.2-0.3-0.4-0.5-0.6-0.6
			c-0.3-0.1-0.6-0.2-0.9-0.2c-0.3,0-0.7,0-1.2,0h-0.5v4.2h0.2c0.3,0,0.6,0,0.9,0s0.5,0,0.7-0.1c0.2,0,0.4-0.1,0.6-0.2
			c0.2-0.1,0.4-0.2,0.5-0.3c0.2-0.2,0.4-0.5,0.5-0.7C109.5,191.1,109.5,190.7,109.5,190.3z"/>
		<path class="st0" d="M120.1,200c-1.8,0-3.2-0.5-4.1-1.4c-1-0.9-1.4-2.2-1.4-4v-8.9h3.3v8.7c0,1,0.2,1.7,0.5,2.2
			c0.3,0.5,0.9,0.7,1.7,0.7c0.8,0,1.3-0.2,1.7-0.7c0.4-0.5,0.5-1.2,0.5-2.2v-8.7h3.3v8.9c0,1.7-0.5,3-1.4,3.9
			C123.4,199.6,122,200,120.1,200z"/>
		<path class="st0" d="M140.6,199.7h-4.1l-3.7-5.1h-1.2v5.1h-3.3v-13.9h5.4c0.7,0,1.4,0,1.9,0.1c0.5,0.1,1.1,0.3,1.5,0.6
			c0.5,0.3,0.9,0.7,1.1,1.2s0.4,1.1,0.4,1.9c0,1.1-0.2,1.9-0.7,2.6c-0.5,0.7-1.1,1.2-1.8,1.6L140.6,199.7z M135.2,190.1
			c0-0.3-0.1-0.6-0.2-0.9c-0.1-0.3-0.3-0.4-0.6-0.6c-0.2-0.1-0.4-0.2-0.7-0.2c-0.3,0-0.6,0-1,0h-1.1v3.7h1c0.5,0,0.9,0,1.2-0.1
			c0.3-0.1,0.6-0.2,0.8-0.4c0.2-0.2,0.4-0.4,0.5-0.6C135.2,190.8,135.2,190.5,135.2,190.1z"/>
		<path class="st0" d="M153.7,192.8c0,2.2-0.6,4-1.7,5.3c-1.2,1.3-2.7,1.9-4.7,1.9c-2,0-3.6-0.7-4.7-2c-1.1-1.3-1.7-3.1-1.7-5.3
			c0-2.2,0.6-4,1.7-5.3c1.1-1.3,2.7-1.9,4.7-1.9c2,0,3.6,0.6,4.7,1.9S153.7,190.6,153.7,192.8z M150.3,192.8c0-0.8-0.1-1.5-0.2-2.1
			s-0.4-1.1-0.7-1.4c-0.3-0.4-0.6-0.7-1-0.8c-0.4-0.2-0.7-0.2-1.1-0.2c-0.4,0-0.8,0.1-1.1,0.2s-0.7,0.4-1,0.8
			c-0.3,0.4-0.5,0.8-0.7,1.4c-0.2,0.6-0.3,1.3-0.3,2.1c0,0.9,0.1,1.6,0.2,2.1s0.4,1,0.7,1.4c0.3,0.4,0.6,0.7,1,0.8s0.7,0.2,1.1,0.2
			c0.4,0,0.8-0.1,1.1-0.3c0.4-0.2,0.7-0.5,1-0.8c0.3-0.4,0.5-0.9,0.7-1.4C150.2,194.4,150.3,193.7,150.3,192.8z"/>
		<path class="st0" d="M166.8,185.8l-4.6,13.9h-3.5l-4.6-13.9h3.5l2.9,9.4l2.9-9.4H166.8z"/>
	</g>
	<g>
		<path class="st0" d="M91.1,217.4h-4.9l-4.4-5.1h-1.4v5.1h-4v-13.9h6.4c0.9,0,1.7,0,2.3,0.1c0.7,0.1,1.3,0.3,1.8,0.6
			c0.6,0.3,1,0.7,1.4,1.2c0.3,0.5,0.5,1.1,0.5,1.9c0,1.1-0.3,1.9-0.8,2.6c-0.5,0.7-1.3,1.2-2.2,1.6L91.1,217.4z M84.7,207.8
			c0-0.3-0.1-0.6-0.2-0.9c-0.2-0.3-0.4-0.4-0.8-0.6c-0.2-0.1-0.5-0.2-0.8-0.2c-0.3,0-0.7,0-1.1,0h-1.3v3.7h1.1c0.6,0,1,0,1.4-0.1
			c0.4-0.1,0.7-0.2,1-0.4c0.3-0.2,0.4-0.4,0.6-0.6C84.6,208.5,84.7,208.2,84.7,207.8z"/>
		<path class="st0" d="M98.7,217.7c-2.1,0-3.8-0.5-4.9-1.4c-1.1-0.9-1.7-2.2-1.7-4v-8.9h4v8.7c0,1,0.2,1.7,0.6,2.2
			c0.4,0.5,1.1,0.7,2,0.7c0.9,0,1.6-0.2,2-0.7c0.4-0.5,0.6-1.2,0.6-2.2v-8.7h4v8.9c0,1.7-0.6,3-1.7,3.9
			C102.6,217.3,100.9,217.7,98.7,217.7z"/>
		<path class="st0" d="M113.4,217.7c-1.2,0-2.3-0.1-3.2-0.3c-0.9-0.2-1.8-0.5-2.6-0.8v-3.3h0.4c0.8,0.6,1.7,1,2.6,1.4
			c1,0.3,1.9,0.5,2.8,0.5c0.2,0,0.5,0,0.9-0.1c0.4,0,0.7-0.1,0.9-0.2c0.3-0.1,0.5-0.3,0.7-0.4s0.3-0.4,0.3-0.8
			c0-0.3-0.2-0.6-0.5-0.8s-0.7-0.4-1.1-0.5c-0.5-0.1-1.1-0.2-1.7-0.4c-0.6-0.1-1.2-0.2-1.7-0.4c-1.2-0.4-2.1-0.9-2.6-1.5
			c-0.5-0.6-0.8-1.4-0.8-2.4c0-1.3,0.6-2.4,1.9-3.2c1.3-0.8,2.8-1.2,4.7-1.2c0.9,0,1.9,0.1,2.8,0.3c0.9,0.2,1.8,0.4,2.5,0.7v3.2
			h-0.4c-0.6-0.4-1.3-0.8-2.2-1.1c-0.8-0.3-1.7-0.5-2.6-0.5c-0.3,0-0.7,0-0.9,0.1c-0.3,0-0.6,0.1-0.9,0.3c-0.2,0.1-0.5,0.2-0.6,0.4
			c-0.2,0.2-0.3,0.4-0.3,0.7c0,0.4,0.1,0.6,0.4,0.8s0.8,0.4,1.7,0.6c0.5,0.1,1,0.2,1.5,0.3c0.5,0.1,1,0.2,1.6,0.4
			c1.1,0.3,1.9,0.8,2.5,1.4c0.5,0.6,0.8,1.4,0.8,2.3c0,1.4-0.6,2.5-1.9,3.3C117.2,217.3,115.5,217.7,113.4,217.7z"/>
		<path class="st0" d="M125.3,217.4v-11.2h-4.7v-2.6H134v2.6h-4.7v11.2H125.3z"/>
		<path class="st0" d="M134,217.4l5.4-13.9h4.4l5.4,13.9H145l-1-2.8h-5l-1,2.8H134z M143.1,212.1l-1.6-4.6l-1.6,4.6H143.1z"/>
		<path class="st0" d="M166.9,217.4h-4v-9.2l-2.9,5.9h-2.7l-2.9-5.9v9.2h-3.8v-13.9h4.6l3.5,6.9l3.5-6.9h4.6V217.4z"/>
	</g>
</g>
<polygon class="st1" points="457.9,65.9 401.7,65.9 401.7,65.9 457.9,65.9 "/>
<g>
	<path class="st0" d="M389.2,124.1h-24.3l-22.1-29.1h-7.1v29.1h-19.8V44.9h31.9c4.4,0,8.2,0.3,11.5,0.8c3.3,0.6,6.3,1.7,9,3.4
		c2.8,1.8,5.1,4.1,6.8,6.9c1.7,2.8,2.5,6.3,2.5,10.6c0,6.1-1.4,11-4.1,14.8c-2.7,3.8-6.4,6.8-11,9L389.2,124.1z M357.1,69.1
		c0-2-0.4-3.7-1.1-5.1c-0.8-1.4-2-2.5-3.8-3.3c-1.2-0.5-2.6-0.9-4.2-1c-1.5-0.1-3.4-0.2-5.7-0.2h-6.7v21.3h5.7
		c2.8,0,5.1-0.2,7.1-0.5c1.9-0.3,3.6-1.1,4.9-2.2c1.3-1,2.2-2.2,2.8-3.6C356.8,73.2,357.1,71.4,357.1,69.1z"/>
	<path class="st0" d="M441,125.8c-10.6,0-18.8-2.6-24.6-7.7c-5.7-5.1-8.6-12.7-8.6-22.6V44.9h19.9v49.4c0,5.5,1,9.6,3.1,12.3
		c2.1,2.7,5.5,4,10.1,4c4.6,0,7.9-1.3,10.1-3.9c2.1-2.6,3.2-6.7,3.2-12.5V44.9h19.9v50.6c0,9.8-2.8,17.3-8.4,22.5
		C460.2,123.2,452,125.8,441,125.8z"/>
	<path class="st0" d="M527.9,125.6c-6.1,0-11.4-0.6-16-1.8c-4.6-1.2-8.9-2.6-12.8-4.4v-18.8h1.8c4,3.4,8.4,6,13.1,7.8
		s9.4,2.7,13.9,2.7c1.1,0,2.6-0.1,4.5-0.4c1.9-0.2,3.4-0.6,4.5-1.2c1.4-0.6,2.6-1.4,3.5-2.5c1-1.1,1.4-2.5,1.4-4.3
		c0-2-0.8-3.6-2.3-4.8c-1.6-1.2-3.4-2.1-5.6-2.7c-2.7-0.7-5.6-1.4-8.6-2s-5.9-1.4-8.6-2.3c-6.1-2.2-10.5-5.1-13.2-8.7
		c-2.7-3.7-4-8.2-4-13.7c0-7.4,3.1-13.4,9.4-18c6.3-4.6,14.1-6.9,23.5-6.9c4.7,0,9.4,0.5,14.1,1.4c4.7,1,8.8,2.3,12.5,3.9v18.1h-1.8
		c-2.9-2.5-6.5-4.6-10.8-6.4c-4.2-1.7-8.6-2.6-13.1-2.6c-1.7,0-3.3,0.1-4.7,0.4c-1.4,0.2-2.8,0.7-4.4,1.4c-1.2,0.6-2.3,1.4-3.2,2.5
		c-0.9,1.1-1.4,2.4-1.4,3.8c0,2,0.7,3.6,2.2,4.8c1.4,1.2,4.2,2.3,8.3,3.2c2.7,0.6,5.2,1.2,7.7,1.8c2.5,0.6,5.1,1.3,7.9,2.3
		c5.5,2,9.6,4.7,12.3,8c2.7,3.4,4,7.8,4,13.3c0,7.9-3.1,14.2-9.3,19C546.8,123.2,538.5,125.6,527.9,125.6z"/>
	<path class="st0" d="M601.6,124.1V60h-23.4V44.9H645V60h-23.4v64.1H601.6z"/>
	<path class="st0" d="M658.6,124.1l26.8-79.2h21.7l26.8,79.2h-20.5l-5-16.2h-24.9l-5,16.2H658.6z M704,93.6L696,67.4l-8.1,26.1H704z
		"/>
	<path class="st0" d="M836.6,124.1h-19.8V71.6l-14.4,33.9h-13.6l-14.4-33.9v52.5h-18.7V44.9h22.9L796.2,84l17.5-39.1h22.9V124.1z"/>
	<path class="st0" d="M382.1,250.4c-3.5,1.4-8,2.8-13.5,4.2c-5.6,1.3-11,2-16.4,2c-12.5,0-22.4-3.6-29.8-10.8
		c-7.4-7.2-11.1-17.4-11.1-30.6c0-12.4,3.7-22.4,11.1-29.9c7.4-7.5,17.5-11.2,30.4-11.2c6.6,0,12,0.6,16.2,1.9s8.4,3,12.9,5.1v18.6
		h-1.8c-1-0.7-2.3-1.8-4.1-3.2c-1.8-1.4-3.5-2.5-5.2-3.5c-2-1.1-4.3-2.1-6.9-2.9c-2.6-0.8-5.4-1.2-8.3-1.2c-3.4,0-6.5,0.5-9.3,1.6
		c-2.8,1.1-5.3,2.7-7.5,4.9c-2.1,2.1-3.8,4.8-5,8.1c-1.2,3.3-1.8,7.1-1.8,11.4c0,9.3,2.3,16.1,7,20.5c4.6,4.4,11,6.6,19.1,6.6
		c0.7,0,1.5,0,2.5-0.1c1,0,1.8-0.1,2.5-0.2v-15.5h-15.4v-14.8h34.6V250.4z"/>
	<path class="st0" d="M385.7,254.9l26.8-79.2h21.7l26.8,79.2h-20.5l-5-16.2h-24.9l-5,16.2H385.7z M431.2,224.4l-8.1-26.1l-8.1,26.1
		H431.2z"/>
	<path class="st0" d="M527,200.7c0,3.7-0.6,7.2-1.8,10.5c-1.2,3.3-2.9,6.1-5.1,8.4c-1.3,1.4-2.8,2.7-4.4,3.8s-3.4,2.2-5.3,3
		c-2,0.8-4.1,1.5-6.4,1.9c-2.3,0.5-4.9,0.7-7.7,0.7h-10.4v25.9H466v-79.2h30.8c4.6,0,8.5,0.4,11.8,1.3c3.3,0.8,6.3,2.2,9,4
		c3,2,5.3,4.6,6.9,8C526.2,192.2,527,196.1,527,200.7z M506.6,201.2c0-2.2-0.5-4.2-1.6-5.8s-2.3-2.7-3.8-3.3
		c-1.9-0.8-3.7-1.3-5.4-1.4c-1.7-0.1-4.1-0.2-7-0.2h-2.8v23.7h1.4c1.9,0,3.7,0,5.3-0.1c1.7,0,3.1-0.2,4.4-0.4c1.1-0.2,2.2-0.5,3.4-1
		c1.2-0.5,2.1-1.1,2.7-1.7c1.3-1.3,2.3-2.7,2.7-4.1C506.3,205.5,506.6,203.6,506.6,201.2z"/>
	<path class="st0" d="M566.9,256.6c-10.6,0-18.8-2.6-24.6-7.7c-5.7-5.1-8.6-12.7-8.6-22.6v-50.6h19.9v49.4c0,5.5,1,9.6,3.1,12.3
		c2.1,2.7,5.5,4,10.1,4c4.6,0,7.9-1.3,10.1-3.9c2.1-2.6,3.2-6.7,3.2-12.5v-49.4h19.9v50.6c0,9.8-2.8,17.3-8.4,22.5
		C586.1,254,577.8,256.6,566.9,256.6z"/>
	<path class="st0" d="M685.8,254.9h-24.3l-22.1-29.1h-7.1v29.1h-19.8v-79.2h31.9c4.4,0,8.2,0.3,11.5,0.8c3.3,0.6,6.3,1.7,9,3.4
		c2.8,1.8,5.1,4.1,6.8,6.9c1.7,2.8,2.5,6.3,2.5,10.6c0,6.1-1.4,11-4.1,14.8c-2.7,3.8-6.4,6.8-11,9L685.8,254.9z M653.8,199.9
		c0-2-0.4-3.7-1.1-5.1c-0.8-1.4-2-2.5-3.8-3.3c-1.2-0.5-2.6-0.9-4.2-1c-1.5-0.1-3.4-0.2-5.7-0.2h-6.7v21.3h5.7
		c2.8,0,5.1-0.2,7.1-0.5c1.9-0.3,3.6-1.1,4.9-2.2c1.3-1,2.2-2.2,2.8-3.6C653.5,204,653.8,202.2,653.8,199.9z"/>
	<path class="st0" d="M761,215.3c0,12.8-3.4,22.9-10.3,30.2s-16.2,11-28.2,11c-12,0-21.3-3.7-28.2-11.2s-10.2-17.5-10.2-30.1
		c0-12.7,3.4-22.8,10.2-30.2c6.8-7.4,16.2-11.1,28.2-11.1c11.9,0,21.3,3.7,28.2,11S761,202.5,761,215.3z M740.5,215.3
		c0-4.7-0.5-8.7-1.5-12.1c-1-3.3-2.3-6-3.9-8.2c-1.7-2.2-3.6-3.7-5.8-4.7s-4.4-1.4-6.7-1.4c-2.4,0-4.7,0.4-6.7,1.3
		c-2,0.9-3.9,2.4-5.7,4.7c-1.6,2.1-3,4.8-4,8.2c-1,3.4-1.5,7.5-1.5,12.2c0,4.9,0.5,8.9,1.4,12.1s2.3,5.9,3.9,8.1
		c1.7,2.2,3.6,3.8,5.8,4.7c2.2,0.9,4.4,1.4,6.7,1.4c2.3,0,4.6-0.5,6.8-1.5c2.2-1,4.1-2.6,5.7-4.7c1.7-2.3,3-5,3.9-8.1
		C740,224.3,740.5,220.2,740.5,215.3z"/>
	<path class="st0" d="M836.1,175.7l-27.3,79.2h-20.8l-27.3-79.2h20.7l17.2,53.7l17.2-53.7H836.1z"/>
</g>
</svg>
